<?xml version="1.0" encoding="utf-8"?>
<!-- Generator: Adobe Illustrator 16.0.0, SVG Export Plug-In . SVG Version: 6.00 Build 0)  -->
<!DOCTYPE svg PUBLIC "-//W3C//DTD SVG 1.1//EN" "http://www.w3.org/Graphics/SVG/1.1/DTD/svg11.dtd">
<svg version="1.1" id="Layer_1" xmlns="http://www.w3.org/2000/svg" xmlns:xlink="http://www.w3.org/1999/xlink" x="0px" y="0px"
	 width="338px" height="270px" viewBox="0 0 338 270" enable-background="new 0 0 338 270" xml:space="preserve">
<g>
	<path fill-rule="evenodd" clip-rule="evenodd" fill="#FFFFFF" d="M290.254,228.188c-21.672,6.959-43.192,6.802-64.459-1.293
		c-21.28-8.101-37.847-22.245-49.645-42.111c-19.869-33.457-18.685-76.449,3.505-108.876c11.104-16.228,25.613-28.192,43.565-35.562
		c22.035-9.045,44.434-9.541,67.073-2.297c-1.426-1.879-8.792-8.325-13.483-11.837c-10.98-8.221-22.903-14.563-35.813-18.94
		c-12.875-4.366-26.104-6.567-39.662-6.663c-14.165-0.1-27.987,2.089-41.444,6.638c-52.063,17.6-89.616,68.201-88.739,127.917
		c0.867,59.008,39.308,108.689,92.144,124.923c13.952,4.286,28.219,6.045,42.766,5.412c12.977-0.563,25.591-3.073,37.823-7.555
		c12.973-4.752,24.894-11.479,35.775-20.14C284.063,234.302,289.435,229.433,290.254,228.188z M291.743,159.425
		c-0.413-2.854-0.91-5.501-1.335-8.158c-0.432-2.709-0.951-5.403-1.313-8.062c0.796-0.83,1.519-1.602,2.258-2.355
		c0.766-0.781,1.546-1.548,2.32-2.32c0.749-0.749,1.496-1.499,2.244-2.247c0.774-0.772,1.562-1.532,2.321-2.32
		c0.723-0.75,1.543-1.408,2.175-2.281c-0.784-0.29-3.957-0.788-7.864-1.31c-2.622-0.35-5.234-0.772-7.882-1.167
		c-0.235-0.461-0.472-0.896-0.685-1.341c-2.007-4.163-4.008-8.328-6.014-12.49c-0.132-0.272-0.209-0.589-0.55-0.805
		c-0.181,0.337-0.354,0.635-0.504,0.946c-1.761,3.649-3.519,7.301-5.275,10.952c-0.355,0.736-0.724,1.467-1.057,2.213
		c-0.181,0.406-0.457,0.577-0.883,0.626c-0.865,0.102-1.724,0.258-2.586,0.385c-4.068,0.599-8.137,1.196-12.204,1.8
		c-0.124,0.018-0.238,0.105-0.451,0.203c3.83,3.867,7.64,7.63,11.434,11.454c-0.224,1.366-0.438,2.702-0.661,4.035
		c-0.648,3.871-1.303,7.741-1.948,11.613c-0.026,0.152,0.011,0.316,0.023,0.59c4.795-2.541,9.452-5.105,14.178-7.613
		c2.361,1.271,4.699,2.538,7.044,3.792C286.869,156.815,289.19,158.107,291.743,159.425z M304.712,96.057
		c2.314-6.019,4.369-12.045,6.491-18.056c0.392-0.149,0.748-0.288,1.107-0.419c5.247-1.92,10.495-3.84,15.742-5.758
		c0.131-0.048,0.274-0.073,0.392-0.146c0.122-0.075,0.346-0.038,0.357-0.362c-2.904-1.063-5.816-2.127-8.73-3.188
		c-2.951-1.074-5.896-2.162-8.856-3.248c-0.17-0.466-0.333-0.897-0.484-1.332c-1.824-5.247-3.645-10.496-5.477-15.741
		c-0.118-0.341-0.141-0.755-0.542-1.036c-2.112,6.068-4.207,12.083-6.3,18.096c-0.866,0.322-1.682,0.63-2.5,0.929
		c-4.887,1.787-9.774,3.571-14.66,5.362c-0.174,0.064-0.328,0.186-0.573,0.329c0.331,0.13,0.555,0.225,0.783,0.308
		c1.573,0.576,3.148,1.149,4.723,1.726c3.837,1.403,7.671,2.817,11.515,4.201c0.512,0.185,0.859,0.436,0.962,0.996
		c0.024,0.138,0.096,0.268,0.143,0.402c1.813,5.213,3.626,10.427,5.439,15.64C304.395,95.193,304.556,95.624,304.712,96.057z
		 M32.54,245.014c-0.012-0.353-0.162-0.713-0.264-1.076c-0.937-3.329-1.887-6.652-2.823-9.981c-0.338-1.205-0.424-0.962,0.406-2.003
		c2.163-2.711,4.328-5.421,6.488-8.136c0.211-0.265,0.474-0.503,0.607-0.942c-4.199-0.293-8.335-0.225-12.464-0.514
		c-0.376-0.594-0.739-1.161-1.097-1.731c-1.734-2.766-3.465-5.532-5.206-8.293c-0.138-0.219-0.203-0.551-0.601-0.538
		c-1.394,3.952-2.789,7.91-4.188,11.879c-4.026,1.148-8.04,2.143-12.189,3.331c1.735,1.41,3.364,2.681,4.976,3.974
		c1.644,1.316,3.307,2.61,4.952,3.957c-0.065,1.299-0.121,2.546-0.191,3.793c-0.158,2.818-0.325,5.636-0.481,8.454
		c-0.008,0.156-0.082,0.36,0.201,0.478c0.26-0.167,0.554-0.347,0.837-0.545c2.828-1.964,5.654-3.933,8.481-5.897
		c0.313-0.217,0.634-0.42,0.934-0.619c3.767,1.505,7.465,2.981,11.165,4.459c0.064,0.025,0.133,0.039,0.201,0.052
		c0.034,0.007,0.071,0.003,0.104-0.007C32.418,245.098,32.444,245.074,32.54,245.014z M90.36,252.065
		c-0.498-0.216-0.771-0.352-1.054-0.455c-3.936-1.439-7.875-2.868-11.808-4.317c-1.188-0.437-0.981-0.15-1.435-1.454
		c-1.429-4.104-2.859-8.205-4.291-12.309c-0.084-0.242-0.113-0.525-0.43-0.714c-1.646,4.725-3.273,9.394-4.905,14.078
		c-0.75,0.28-1.466,0.553-2.186,0.816c-3.542,1.294-7.087,2.583-10.626,3.886c-0.308,0.112-0.695,0.116-0.896,0.526
		c0.414,0.163,0.799,0.325,1.191,0.468c3.805,1.389,7.612,2.772,11.417,4.162c0.389,0.142,0.767,0.313,1.11,0.454
		c1.61,4.62,3.19,9.16,4.772,13.699c0.023,0.067,0.058,0.13,0.093,0.192c0.017,0.03,0.04,0.062,0.068,0.079
		c0.018,0.011,0.051-0.002,0.164-0.012c1.651-4.616,3.222-9.303,4.898-14.008C80.998,255.492,85.553,253.824,90.36,252.065z
		 M231.116,100.469c0.359,0.181,0.704,0.345,1.04,0.526c2.314,1.245,4.627,2.496,6.943,3.738c0.197,0.106,0.42,0.166,0.713,0.278
		c-0.04-0.417-0.05-0.737-0.103-1.048c-0.443-2.641-0.896-5.279-1.337-7.92c-0.052-0.311-0.056-0.629-0.084-0.987
		c0.323-0.305,0.637-0.588,0.937-0.886c1.803-1.793,3.603-3.586,5.396-5.388c0.181-0.181,0.456-0.321,0.437-0.678
		c-0.149-0.049-0.277-0.112-0.411-0.132c-2.587-0.385-5.174-0.766-7.761-1.146c-0.479-0.071-0.969-0.098-1.403-0.321
		c-0.122-0.246-0.236-0.467-0.344-0.691c-1.188-2.467-2.374-4.935-3.565-7.4c-0.117-0.242-0.275-0.464-0.475-0.795
		c-1.475,3.056-2.894,5.998-4.34,8.991c-1.072,0.159-2.138,0.315-3.203,0.476c-1.069,0.161-2.143,0.302-3.205,0.495
		c-1.042,0.189-2.121,0.19-3.243,0.592c0.594,0.704,1.2,1.238,1.762,1.813c0.566,0.581,1.146,1.151,1.719,1.725
		c0.575,0.575,1.152,1.146,1.724,1.722c0.571,0.574,1.138,1.152,1.728,1.75c-0.186,1.115-0.366,2.205-0.547,3.293
		c-0.182,1.092-0.377,2.182-0.538,3.276c-0.158,1.072-0.444,2.129-0.472,3.355C225.422,103.527,228.256,102.005,231.116,100.469z
		 M44.884,195.486c-1.117,2.316-2.356,4.547-3.521,6.973c1.375-0.159,2.596-0.428,3.824-0.641c1.233-0.214,2.468-0.42,3.748-0.638
		c0.443,0.46,0.881,0.916,1.318,1.374c0.439,0.46,0.875,0.923,1.313,1.383c0.438,0.461,0.871,0.927,1.317,1.378
		c0.439,0.445,0.832,0.944,1.4,1.389c0.36-1.329,0.417-2.608,0.629-3.859c0.213-1.262,0.363-2.534,0.543-3.815
		c0.375-0.201,0.71-0.388,1.05-0.562c1.716-0.872,3.435-1.738,5.149-2.613c0.196-0.1,0.371-0.243,0.632-0.418
		c-2.337-1.189-4.578-2.33-6.832-3.478c-0.185-1.32-0.332-2.596-0.548-3.858c-0.213-1.243-0.254-2.52-0.636-3.847
		c-1.003,0.943-1.842,1.893-2.719,2.8c-0.88,0.911-1.753,1.829-2.623,2.738c-1.298-0.223-2.531-0.441-3.766-0.646
		c-1.222-0.203-2.432-0.499-3.788-0.604C42.533,190.943,43.768,193.176,44.884,195.486z M328.868,133.111
		c4.022-0.059,7.353-3.3,7.32-7.616c-0.031-4.101-3.153-7.47-7.343-7.476c-4.318-0.006-7.384,3.525-7.373,7.552
		C321.482,129.8,324.785,133.096,328.868,133.111z M102.665,257.949c-0.088,2.475,1.907,4.844,4.66,4.85
		c2.617,0.007,4.739-2.117,4.745-4.786c0.006-2.439-1.769-4.831-4.682-4.857C104.385,253.129,102.597,255.686,102.665,257.949z
		 M273.877,46.476c-0.01-2.312-1.897-3.908-3.787-3.868c-2.116,0.044-3.757,1.722-3.739,3.902c0.017,2.11,1.665,3.804,3.72,3.823
		C272.158,50.351,273.873,48.613,273.877,46.476z M67.681,205.187c-0.013,2.019,1.544,3.864,3.811,3.829
		c2.145-0.033,3.696-1.727,3.709-3.837c0.013-2.216-1.698-3.885-3.769-3.877C69.316,201.31,67.662,203.018,67.681,205.187z
		 M216.966,136.846c-0.104,1.775,1.289,3.878,3.723,3.917c2.096,0.032,3.798-1.706,3.799-3.852c0.002-2.142-1.707-3.891-3.787-3.876
		C218.646,133.05,216.99,134.74,216.966,136.846z M19.185,265.632c-0.064,1.76,1.291,3.881,3.778,3.86
		c2.515-0.02,3.74-2.129,3.751-3.796c0.015-2.149-1.644-3.897-3.741-3.917C20.868,261.761,19.188,263.469,19.185,265.632z
		 M267.346,90.238c-0.021-0.57-0.568-1.07-1.108-1.015c-0.534,0.054-0.934,0.524-0.919,1.085c0.017,0.603,0.505,1.053,1.091,1.004
		C266.929,91.269,267.367,90.766,267.346,90.238z M51.899,228.645c-0.566-0.028-1.067,0.467-1.064,1.051
		c0.002,0.538,0.448,1.016,0.973,1.041c0.525,0.026,1.009-0.407,1.06-0.947C52.921,229.207,52.468,228.672,51.899,228.645z
		 M337.227,97.437c-0.021-0.561-0.469-0.99-1.031-0.989c-0.613,0.002-1.035,0.476-0.99,1.113c0.039,0.56,0.516,0.987,1.061,0.95
		C336.799,98.475,337.246,97.975,337.227,97.437z M11.223,205.854c-0.586-0.023-1.008,0.359-1.043,0.949
		c-0.039,0.619,0.413,1.117,1.006,1.111c0.539-0.005,1.003-0.472,1.014-1.02C12.21,206.341,11.775,205.877,11.223,205.854z
		 M238.432,170.741c0.566-0.008,0.977-0.434,0.979-1.017c0.002-0.578-0.41-1.02-0.968-1.034c-0.602-0.017-1.06,0.461-1.035,1.075
		C237.431,170.336,237.863,170.748,238.432,170.741z M42.343,185.114c0.567-0.008,0.979-0.429,0.983-1.007
		c0.005-0.576-0.405-1.018-0.962-1.036c-0.6-0.021-1.055,0.448-1.033,1.067C41.352,184.717,41.772,185.123,42.343,185.114z"/>
	<path fill-rule="evenodd" clip-rule="evenodd" d="M290.254,228.188c-0.819,1.245-6.19,6.114-10.593,9.617
		c-10.882,8.66-22.803,15.388-35.775,20.14c-12.232,4.481-24.847,6.991-37.823,7.555c-14.547,0.633-28.813-1.126-42.766-5.412
		c-52.836-16.234-91.277-65.915-92.144-124.923C70.276,75.448,107.829,24.847,159.892,7.247c13.457-4.549,27.279-6.738,41.444-6.638
		c13.558,0.096,26.787,2.296,39.662,6.663c12.909,4.377,24.832,10.719,35.813,18.94c4.691,3.512,12.058,9.958,13.483,11.837
		c-22.64-7.244-45.038-6.748-67.073,2.297c-17.952,7.37-32.461,19.334-43.565,35.562c-22.19,32.427-23.374,75.419-3.505,108.876
		c11.798,19.866,28.364,34.011,49.645,42.111C247.062,234.989,268.582,235.146,290.254,228.188z"/>
	<path fill-rule="evenodd" clip-rule="evenodd" d="M291.743,159.425c-2.553-1.317-4.874-2.609-7.215-3.86
		c-2.345-1.254-4.683-2.521-7.044-3.792c-4.726,2.508-9.383,5.072-14.178,7.613c-0.013-0.273-0.05-0.438-0.023-0.59
		c0.646-3.872,1.3-7.742,1.948-11.613c0.224-1.333,0.438-2.669,0.661-4.035c-3.794-3.823-7.604-7.586-11.434-11.454
		c0.213-0.098,0.327-0.185,0.451-0.203c4.067-0.604,8.136-1.201,12.204-1.8c0.862-0.127,1.721-0.283,2.586-0.385
		c0.426-0.05,0.702-0.22,0.883-0.626c0.333-0.746,0.701-1.477,1.057-2.213c1.757-3.651,3.515-7.303,5.275-10.952
		c0.15-0.311,0.323-0.609,0.504-0.946c0.341,0.215,0.418,0.533,0.55,0.805c2.006,4.162,4.007,8.328,6.014,12.49
		c0.213,0.445,0.449,0.88,0.685,1.341c2.647,0.395,5.26,0.817,7.882,1.167c3.907,0.522,7.08,1.021,7.864,1.31
		c-0.632,0.874-1.452,1.532-2.175,2.281c-0.76,0.788-1.547,1.547-2.321,2.32c-0.748,0.748-1.495,1.498-2.244,2.247
		c-0.774,0.772-1.555,1.539-2.32,2.32c-0.739,0.754-1.462,1.525-2.258,2.355c0.362,2.658,0.882,5.353,1.313,8.062
		C290.833,153.924,291.33,156.57,291.743,159.425z"/>
	<path fill-rule="evenodd" clip-rule="evenodd" d="M304.712,96.057c-0.156-0.433-0.317-0.864-0.469-1.298
		c-1.813-5.213-3.626-10.427-5.439-15.64c-0.047-0.134-0.118-0.264-0.143-0.402c-0.103-0.56-0.45-0.811-0.962-0.996
		c-3.844-1.384-7.678-2.798-11.515-4.201c-1.574-0.576-3.149-1.149-4.723-1.726c-0.229-0.083-0.452-0.178-0.783-0.308
		c0.245-0.143,0.399-0.265,0.573-0.329c4.886-1.791,9.773-3.575,14.66-5.362c0.818-0.299,1.634-0.607,2.5-0.929
		c2.093-6.013,4.188-12.028,6.3-18.096c0.401,0.281,0.424,0.695,0.542,1.036c1.832,5.245,3.652,10.494,5.477,15.741
		c0.151,0.435,0.314,0.866,0.484,1.332c2.96,1.086,5.905,2.174,8.856,3.248c2.914,1.061,5.826,2.125,8.73,3.188
		c-0.012,0.325-0.235,0.287-0.357,0.362c-0.117,0.072-0.261,0.097-0.392,0.146c-5.247,1.918-10.495,3.838-15.742,5.758
		c-0.359,0.132-0.716,0.271-1.107,0.419C309.081,84.011,307.026,90.038,304.712,96.057z"/>
	<path fill-rule="evenodd" clip-rule="evenodd" d="M32.54,245.014c-0.096,0.061-0.122,0.084-0.151,0.093
		c-0.033,0.01-0.07,0.014-0.104,0.007c-0.068-0.013-0.137-0.026-0.201-0.052c-3.7-1.478-7.398-2.954-11.165-4.459
		c-0.299,0.199-0.621,0.402-0.934,0.619c-2.828,1.965-5.653,3.934-8.481,5.897c-0.283,0.198-0.577,0.378-0.837,0.545
		c-0.283-0.117-0.209-0.321-0.201-0.478c0.157-2.818,0.324-5.636,0.481-8.454c0.07-1.247,0.126-2.494,0.191-3.793
		c-1.646-1.347-3.308-2.641-4.952-3.957c-1.612-1.293-3.241-2.563-4.976-3.974c4.15-1.188,8.163-2.183,12.189-3.331
		c1.399-3.969,2.794-7.927,4.188-11.879c0.398-0.013,0.463,0.319,0.601,0.538c1.741,2.761,3.472,5.527,5.206,8.293
		c0.358,0.57,0.721,1.138,1.097,1.731c4.128,0.289,8.265,0.221,12.464,0.514c-0.133,0.439-0.396,0.678-0.607,0.942
		c-2.16,2.715-4.325,5.425-6.488,8.136c-0.83,1.041-0.745,0.798-0.406,2.003c0.936,3.329,1.886,6.652,2.823,9.981
		C32.377,244.301,32.527,244.661,32.54,245.014z"/>
	<path fill-rule="evenodd" clip-rule="evenodd" d="M90.36,252.065c-4.807,1.759-9.362,3.427-13.916,5.093
		c-1.676,4.705-3.247,9.392-4.898,14.008c-0.112,0.01-0.146,0.022-0.164,0.012c-0.028-0.018-0.052-0.049-0.068-0.079
		c-0.035-0.063-0.069-0.125-0.093-0.192c-1.582-4.539-3.163-9.079-4.772-13.699c-0.344-0.142-0.722-0.313-1.11-0.454
		c-3.805-1.39-7.612-2.773-11.417-4.162c-0.392-0.143-0.777-0.305-1.191-0.468c0.2-0.41,0.588-0.414,0.896-0.526
		c3.539-1.303,7.084-2.592,10.626-3.886c0.72-0.264,1.436-0.536,2.186-0.816c1.632-4.685,3.259-9.354,4.905-14.078
		c0.317,0.188,0.346,0.472,0.43,0.714c1.431,4.104,2.861,8.205,4.291,12.309c0.454,1.304,0.247,1.018,1.435,1.454
		c3.933,1.449,7.872,2.878,11.808,4.317C89.589,251.714,89.862,251.85,90.36,252.065z"/>
	<path fill-rule="evenodd" clip-rule="evenodd" d="M231.116,100.469c-2.86,1.536-5.694,3.058-8.634,4.637
		c0.027-1.227,0.313-2.283,0.472-3.355c0.161-1.095,0.356-2.184,0.538-3.276c0.181-1.088,0.361-2.178,0.547-3.293
		c-0.59-0.598-1.156-1.176-1.728-1.75c-0.571-0.576-1.148-1.147-1.724-1.722c-0.573-0.574-1.152-1.144-1.719-1.725
		c-0.562-0.575-1.168-1.109-1.762-1.813c1.122-0.402,2.201-0.403,3.243-0.592c1.063-0.193,2.136-0.334,3.205-0.495
		c1.065-0.16,2.131-0.316,3.203-0.476c1.446-2.993,2.865-5.935,4.34-8.991c0.199,0.331,0.357,0.553,0.475,0.795
		c1.191,2.465,2.378,4.933,3.565,7.4c0.107,0.225,0.222,0.445,0.344,0.691c0.435,0.223,0.924,0.25,1.403,0.321
		c2.587,0.38,5.174,0.761,7.761,1.146c0.134,0.02,0.262,0.083,0.411,0.132c0.02,0.357-0.256,0.498-0.437,0.678
		c-1.793,1.802-3.593,3.595-5.396,5.388c-0.3,0.298-0.613,0.581-0.937,0.886c0.028,0.357,0.032,0.676,0.084,0.987
		c0.441,2.641,0.894,5.279,1.337,7.92c0.053,0.312,0.063,0.631,0.103,1.048c-0.293-0.112-0.516-0.172-0.713-0.278
		c-2.316-1.243-4.629-2.493-6.943-3.738C231.82,100.814,231.476,100.65,231.116,100.469z"/>
	<path fill-rule="evenodd" clip-rule="evenodd" d="M44.884,195.486c-1.116-2.311-2.351-4.543-3.51-6.945
		c1.355,0.105,2.565,0.401,3.788,0.604c1.235,0.205,2.468,0.424,3.766,0.646c0.87-0.909,1.743-1.827,2.623-2.738
		c0.877-0.907,1.716-1.856,2.719-2.8c0.382,1.327,0.423,2.604,0.636,3.847c0.216,1.263,0.363,2.538,0.548,3.858
		c2.253,1.147,4.494,2.288,6.832,3.478c-0.261,0.175-0.436,0.318-0.632,0.418c-1.714,0.875-3.434,1.741-5.149,2.613
		c-0.34,0.174-0.675,0.36-1.05,0.562c-0.18,1.281-0.33,2.554-0.543,3.815c-0.211,1.251-0.269,2.53-0.629,3.859
		c-0.568-0.444-0.96-0.943-1.4-1.389c-0.446-0.451-0.879-0.917-1.317-1.378c-0.438-0.46-0.874-0.923-1.313-1.383
		c-0.437-0.458-0.875-0.914-1.318-1.374c-1.279,0.218-2.514,0.424-3.748,0.638c-1.229,0.213-2.449,0.481-3.824,0.641
		C42.527,200.033,43.767,197.803,44.884,195.486z"/>
	<path fill-rule="evenodd" clip-rule="evenodd" d="M328.868,133.111c-4.083-0.015-7.386-3.312-7.396-7.54
		c-0.011-4.027,3.055-7.558,7.373-7.552c4.189,0.006,7.312,3.375,7.343,7.476C336.221,129.811,332.891,133.052,328.868,133.111z"/>
	<path fill-rule="evenodd" clip-rule="evenodd" d="M102.665,257.949c-0.068-2.264,1.72-4.82,4.723-4.794
		c2.913,0.026,4.688,2.418,4.682,4.857c-0.006,2.669-2.128,4.793-4.745,4.786C104.572,262.793,102.577,260.424,102.665,257.949z"/>
	<path fill-rule="evenodd" clip-rule="evenodd" d="M273.877,46.476c-0.004,2.137-1.719,3.875-3.807,3.857
		c-2.055-0.019-3.703-1.713-3.72-3.823c-0.018-2.18,1.623-3.858,3.739-3.902C271.979,42.568,273.867,44.164,273.877,46.476z"/>
	<path fill-rule="evenodd" clip-rule="evenodd" d="M67.681,205.187c-0.019-2.169,1.636-3.877,3.751-3.885
		c2.071-0.008,3.782,1.661,3.769,3.877c-0.013,2.11-1.564,3.804-3.709,3.837C69.225,209.051,67.667,207.205,67.681,205.187z"/>
	<path fill-rule="evenodd" clip-rule="evenodd" d="M216.966,136.846c0.024-2.106,1.681-3.796,3.734-3.81
		c2.08-0.015,3.789,1.734,3.787,3.876c-0.001,2.146-1.703,3.884-3.799,3.852C218.255,140.725,216.862,138.621,216.966,136.846z"/>
	<path fill-rule="evenodd" clip-rule="evenodd" d="M19.185,265.632c0.003-2.163,1.683-3.871,3.788-3.853
		c2.097,0.02,3.756,1.768,3.741,3.917c-0.012,1.667-1.237,3.776-3.751,3.796C20.476,269.513,19.12,267.392,19.185,265.632z"/>
	<path fill-rule="evenodd" clip-rule="evenodd" d="M267.346,90.238c0.021,0.528-0.417,1.031-0.937,1.074
		c-0.586,0.048-1.074-0.401-1.091-1.004c-0.015-0.561,0.385-1.031,0.919-1.085C266.777,89.168,267.324,89.668,267.346,90.238z"/>
	<path fill-rule="evenodd" clip-rule="evenodd" d="M51.899,228.645c0.569,0.027,1.022,0.563,0.968,1.145
		c-0.051,0.54-0.535,0.974-1.06,0.947c-0.525-0.025-0.971-0.503-0.973-1.041C50.832,229.111,51.333,228.616,51.899,228.645z"/>
	<path fill-rule="evenodd" clip-rule="evenodd" d="M337.227,97.437c0.02,0.538-0.428,1.038-0.961,1.075
		c-0.545,0.037-1.021-0.39-1.061-0.95c-0.045-0.638,0.377-1.111,0.99-1.113C336.758,96.447,337.205,96.876,337.227,97.437z"/>
	<path fill-rule="evenodd" clip-rule="evenodd" d="M11.223,205.854c0.552,0.022,0.987,0.486,0.977,1.041
		c-0.011,0.548-0.476,1.015-1.014,1.02c-0.593,0.006-1.044-0.492-1.006-1.111C10.215,206.214,10.637,205.831,11.223,205.854z"/>
	<path fill-rule="evenodd" clip-rule="evenodd" d="M238.432,170.741c-0.568,0.007-1.001-0.405-1.024-0.976
		c-0.024-0.614,0.434-1.092,1.035-1.075c0.558,0.015,0.97,0.456,0.968,1.034C239.408,170.308,238.998,170.733,238.432,170.741z"/>
	<path fill-rule="evenodd" clip-rule="evenodd" d="M42.343,185.114c-0.571,0.009-0.991-0.397-1.012-0.976
		c-0.021-0.619,0.433-1.088,1.033-1.067c0.557,0.019,0.967,0.46,0.962,1.036C43.322,184.686,42.91,185.106,42.343,185.114z"/>
</g>
</svg>
