<?xml version="1.0" encoding="utf-8"?>
<!-- Generator: Adobe Illustrator 16.0.0, SVG Export Plug-In . SVG Version: 6.00 Build 0)  -->
<!DOCTYPE svg PUBLIC "-//W3C//DTD SVG 1.1//EN" "http://www.w3.org/Graphics/SVG/1.1/DTD/svg11.dtd">
<svg version="1.1" id="Layer_1" xmlns="http://www.w3.org/2000/svg" xmlns:xlink="http://www.w3.org/1999/xlink" x="0px" y="0px"
	 width="500.44px" height="161.244px" viewBox="0 0 500.44 161.244" enable-background="new 0 0 500.44 161.244"
	 xml:space="preserve">
<path fill="#D9BD9D" d="M77.759,8.006l17.771,1.805l5.321,31.882l8.932-33.641l14.112,3.517l6.618,39.98l-16.751,2.778l-0.74-30.08
	l-7.358,27.997l-10.736,2.083l-6.015-32.485l-3.655,32.947l-16.195-0.972L77.759,8.006z"/>
<path fill="#D9BD9D" d="M149.993,8.237c0.647,0.031,1.342,0.046,2.082,0.046c0.741,0,1.481,0.007,2.222,0.022
	c0.74,0.017,1.473,0.04,2.196,0.07c0.727,0.031,1.398,0.077,2.015,0.138c1.11,0.155,2.36,0.394,3.748,0.717
	c1.39,0.324,2.652,0.61,3.794,0.856l14.717,41.37l-15.642,1.48l-2.174-9.624l-12.171-1.991l-3.656,13.466l-14.761-4.72
	L149.993,8.237z M160.962,34.475l-3.796-16.89l-4.442,16.474L160.962,34.475z"/>
<path fill="#D9BD9D" d="M176.138,7.589l34.336,1.388l-1.851,10.18l-9.349-0.648l1.25,34.891l-14.761,2.313l0.831-38.083
	l-10.457-0.694V7.589z"/>
<path fill="#D9BD9D" d="M211.397,7.589l34.336,1.388l-1.851,10.18l-9.348-0.648l1.251,34.891l-14.764,2.313l0.835-38.083
	l-10.46-0.694V7.589z"/>
<path fill="#D9BD9D" d="M248.372,55.714l-1.02-47.2l14.764,2.314l-0.834,22.952l9.486-1.528L268.64,8.514h14.299l2.174,44.563
	l-12.214,2.637l-1.344-14.9l-10.549,0.556l-0.417,11.707L248.372,55.714z"/>
<path fill="#D9BD9D" d="M288.446,8.514l31.094-0.462l-1.851,11.105l-16.798-1.851l0.371,9.856l9.854-1.943l2.037,9.856l-11.66,0.648
	l0.369,9.856l15.735-3.24l2.312,12.032l-32.482,1.388L288.446,8.514z"/>
<path fill="#D9BD9D" d="M338.052,8.052L341.706,41l6.017-16.753l10.734,2.083l7.359,12.263l0.739-30.079l16.75,2.777l-6.615,39.981
	l-14.114,3.516l-8.933-17.908l-5.32,16.149l-17.861,1.758l-8.699-45.812L338.052,8.052z"/>
<path fill="#D9BD9D" d="M419.4,21.055c-0.122-0.03-0.47-0.124-1.042-0.278c-0.57-0.154-1.241-0.331-2.011-0.532
	c-0.771-0.2-1.597-0.423-2.476-0.671c-0.88-0.246-1.689-0.47-2.432-0.671c-0.739-0.201-1.604-0.423-2.591-0.67h-5.645l-1.481,6.94
	l18,1.943l4.304,15.78l-5.784,10.967l-17.768,2.314l-15.318-4.211l3.193-13.465l16.429,7.219l4.996-2.823l-0.833-6.154
	l-19.157-4.905l0.462-17.908l13.004-6.803l19.203,2.823L419.4,21.055z"/>
<path fill="#D9BD9D" d="M51.448,95.637c-1.923-0.111-3.583-0.248-4.981-0.411c-1.398-0.166-3.06-0.249-4.98-0.249
	c-0.162,0-0.853,0.123-2.057,0.371c-1.208,0.247-2.551,0.509-4.034,0.782c-1.48,0.275-2.869,0.55-4.157,0.823
	c-1.288,0.275-2.099,0.441-2.427,0.495l-2.802,33.337l15.722,12.186l17.043-10.787l-0.578-6.995l-18.521,1.646l-2.387-20.332
	l36.959,2.14l8.645,26.095l-20.991,23.625l-32.187,1.973L2.881,144.123L-0.001,90.78l30.623-15.229l43.955,2.551L71.45,97.037
	L51.448,95.637z"/>
<path fill="#D9BD9D" d="M117.137,76.704c1.153,0.055,2.386,0.082,3.705,0.082c1.315,0,2.635,0.014,3.951,0.041
	c1.315,0.028,2.62,0.069,3.909,0.124c1.288,0.056,2.481,0.137,3.58,0.247c1.977,0.275,4.2,0.699,6.667,1.276
	c2.472,0.577,4.722,1.084,6.752,1.522l26.177,73.594l-27.823,2.633l-3.868-17.121l-21.649-3.542l-6.504,23.955l-26.258-8.396
	L117.137,76.704z M136.646,123.377l-6.748-30.045l-7.903,29.304L136.646,123.377z"/>
<path fill="#D9BD9D" d="M199.62,78.843l-2.226,61.575l27.084-7.243l1.401,25.519l-50.709-2.472l0.82-79.848L199.62,78.843z"/>
<path fill="#D9BD9D" d="M254.031,78.843l-2.224,61.575l27.084-7.243l1.398,25.519l-50.707-2.472l0.82-79.848L254.031,78.843z"/>
<path fill="#D9BD9D" d="M285.804,77.197l55.317-0.824l-3.293,19.756l-29.883-3.293l0.661,17.534l17.533-3.457l3.621,17.533
	l-20.742,1.152l0.658,17.535l27.986-5.764l4.117,21.404l-57.789,2.47L285.804,77.197z"/>
<path fill="#D9BD9D" d="M348.53,77.197c3.345-0.109,6.692-0.274,10.043-0.493c3.347-0.219,6.693-0.331,10.04-0.331
	c1.153,0,2.21,0.055,3.17,0.165c0.959,0.112,1.904,0.248,2.842,0.413c0.933,0.164,1.878,0.343,2.838,0.534
	c0.961,0.194,2.016,0.371,3.17,0.536l23.956,3.21l12.675,19.84l-7.409,18.521l-10.948,2.963l23.628,29.634l-25.602,6.01
	l-23.707-33.009l18.521-16.546l-2.964-12.759l-19.59-2.552l2.139,67.004l-26.258-3.292L348.53,77.197z"/>
<path fill="#D9BD9D" d="M443.111,76.704l16.215,40.665l12.513-40.665l27.824,2.633l-31.608,54.823l1.811,23.461l-29.387,1.071
	l8.231-29.142L416.854,85.1L443.111,76.704z"/>
<path fill="#C49A6C" d="M78.124,4.239l17.771,1.805l5.321,31.882l8.932-33.641l14.112,3.517l6.618,39.98l-16.751,2.777l-0.74-30.079
	l-7.358,27.996L95.292,50.56l-6.015-32.485l-3.655,32.948L69.427,50.05L78.124,4.239z"/>
<path fill="#C49A6C" d="M150.358,4.471c0.648,0.031,1.343,0.046,2.082,0.046c0.742,0,1.481,0.008,2.223,0.023
	c0.739,0.016,1.472,0.039,2.197,0.069c0.725,0.031,1.396,0.078,2.014,0.139c1.109,0.155,2.359,0.394,3.749,0.718
	c1.387,0.324,2.651,0.609,3.793,0.855l14.716,41.37l-15.642,1.48l-2.174-9.625l-12.171-1.99l-3.654,13.466l-14.763-4.72
	L150.358,4.471z M161.327,30.708l-3.797-16.891l-4.441,16.474L161.327,30.708z"/>
<path fill="#C49A6C" d="M176.504,3.822l34.335,1.389l-1.851,10.181l-9.349-0.647l1.25,34.89l-14.761,2.314l0.831-38.084
	l-10.456-0.694V3.822z"/>
<path fill="#C49A6C" d="M211.764,3.822L246.1,5.211l-1.851,10.181l-9.348-0.647l1.249,34.89l-14.761,2.314l0.833-38.084
	l-10.459-0.694V3.822z"/>
<path fill="#C49A6C" d="M248.737,51.948l-1.019-47.201l14.762,2.315l-0.834,22.952l9.486-1.527l-2.128-23.739h14.299l2.174,44.563
	l-12.216,2.638l-1.341-14.901l-10.551,0.556l-0.416,11.708L248.737,51.948z"/>
<path fill="#C49A6C" d="M288.81,4.748l31.097-0.462l-1.851,11.106l-16.797-1.851l0.369,9.857l9.855-1.944l2.036,9.857l-11.659,0.647
	l0.369,9.856l15.733-3.239l2.313,12.031l-32.484,1.388L288.81,4.748z"/>
<path fill="#C49A6C" d="M338.415,4.286l3.656,32.947l6.017-16.751l10.735,2.082l7.357,12.263l0.739-30.079l16.753,2.777
	l-6.617,39.981l-14.114,3.517l-8.931-17.908l-5.322,16.149l-17.86,1.759l-8.7-45.812L338.415,4.286z"/>
<path fill="#C49A6C" d="M419.767,17.289c-0.125-0.031-0.471-0.123-1.041-0.278c-0.571-0.154-1.242-0.332-2.013-0.533
	c-0.771-0.2-1.597-0.423-2.477-0.67c-0.878-0.247-1.688-0.47-2.429-0.671c-0.741-0.201-1.605-0.424-2.593-0.671h-5.644l-1.481,6.941
	l18,1.943l4.304,15.78l-5.784,10.967l-17.77,2.314l-15.316-4.212l3.192-13.465l16.427,7.219l4.998-2.823l-0.831-6.154L390.15,28.07
	l0.464-17.907l13.002-6.803l19.203,2.823L419.767,17.289z"/>
<path fill="#C49A6C" d="M52.096,88.938c-1.92-0.11-3.579-0.248-4.979-0.413c-1.4-0.165-3.061-0.248-4.979-0.248
	c-0.164,0-0.853,0.124-2.059,0.371c-1.207,0.248-2.551,0.509-4.035,0.782c-1.48,0.275-2.866,0.55-4.156,0.823
	c-1.289,0.275-2.1,0.441-2.428,0.494l-2.799,33.338l15.723,12.185l17.04-10.787l-0.576-6.995l-18.521,1.646L37.94,99.803
	l36.959,2.14l8.645,26.095l-20.991,23.625l-32.188,1.974L3.529,137.422L0.649,84.08l30.62-15.229l43.958,2.552L72.1,90.335
	L52.096,88.938z"/>
<path fill="#C49A6C" d="M117.786,70.003c1.153,0.056,2.387,0.083,3.706,0.083c1.315,0,2.635,0.014,3.948,0.041
	c1.319,0.028,2.622,0.069,3.912,0.124c1.289,0.055,2.481,0.137,3.581,0.247c1.976,0.275,4.197,0.7,6.668,1.276
	c2.468,0.577,4.718,1.084,6.75,1.522l26.176,73.594l-27.822,2.632l-3.868-17.12l-21.651-3.542l-6.503,23.956l-26.258-8.396
	L117.786,70.003z M137.296,116.678l-6.752-30.047l-7.9,29.305L137.296,116.678z"/>
<path fill="#C49A6C" d="M200.268,72.144l-2.222,61.574l27.083-7.244l1.397,25.517l-50.706-2.471l0.823-79.847L200.268,72.144z"/>
<path fill="#C49A6C" d="M254.681,72.144l-2.225,61.574l27.084-7.244l1.4,25.517l-50.708-2.471l0.823-79.847L254.681,72.144z"/>
<path fill="#C49A6C" d="M286.453,70.497l55.318-0.823l-3.293,19.756l-29.884-3.293l0.661,17.535l17.533-3.459l3.623,17.535
	l-20.745,1.152l0.658,17.535l27.989-5.765l4.114,21.403l-57.787,2.471L286.453,70.497z"/>
<path fill="#C49A6C" d="M349.18,70.497c3.347-0.109,6.694-0.274,10.043-0.494c3.346-0.219,6.693-0.33,10.041-0.33
	c1.154,0,2.209,0.056,3.171,0.165c0.959,0.111,1.906,0.248,2.84,0.412c0.932,0.164,1.878,0.343,2.838,0.536
	c0.961,0.193,2.018,0.37,3.171,0.534l23.954,3.21l12.677,19.839l-7.407,18.521l-10.949,2.964l23.626,29.633l-25.601,6.01
	l-23.708-33.009l18.521-16.546l-2.964-12.76l-19.59-2.552l2.14,67.006l-26.259-3.292L349.18,70.497z"/>
<path fill="#C49A6C" d="M443.761,70.003l16.217,40.665l12.514-40.665l27.822,2.635l-31.609,54.823l1.812,23.461l-29.388,1.069
	l8.232-29.14l-31.859-44.452L443.761,70.003z"/>
<path fill="#ED1C24" d="M77.761,0.879l17.769,1.805l5.321,31.882l8.932-33.641l14.112,3.517l6.618,39.98l-16.75,2.777l-0.741-30.08
	l-7.358,27.997L94.928,47.2l-6.016-32.485l-3.655,32.948L69.062,46.69L77.761,0.879z"/>
<path fill="#00AEEF" d="M149.993,1.111c0.648,0.031,1.343,0.046,2.082,0.046c0.742,0,1.481,0.008,2.223,0.023
	c0.739,0.017,1.472,0.04,2.198,0.07c0.724,0.03,1.396,0.077,2.012,0.138c1.111,0.155,2.361,0.393,3.749,0.717
	c1.389,0.324,2.651,0.61,3.794,0.856l14.716,41.37l-15.641,1.48l-2.175-9.625l-12.171-1.99l-3.654,13.466l-14.763-4.72
	L149.993,1.111z M160.962,27.348l-3.795-16.89l-4.443,16.474L160.962,27.348z"/>
<path fill="#FFF200" d="M176.139,0.463l34.335,1.388l-1.851,10.181l-9.349-0.648l1.25,34.891l-14.761,2.314l0.833-38.084
	l-10.458-0.693V0.463z"/>
<path fill="#00A651" d="M211.397,0.463l34.337,1.388l-1.852,10.181l-9.347-0.648l1.25,34.891l-14.762,2.314l0.833-38.084
	l-10.46-0.693V0.463z"/>
<path fill="#ED1C24" d="M248.372,48.588l-1.02-47.2l14.764,2.313l-0.834,22.953l9.486-1.529L268.64,1.388h14.299l2.176,44.563
	l-12.216,2.637l-1.344-14.9l-10.549,0.556l-0.417,11.708L248.372,48.588z"/>
<path fill="#00A651" d="M288.446,1.388l31.095-0.463l-1.852,11.106l-16.798-1.851l0.371,9.855l9.857-1.943l2.035,9.856
	l-11.661,0.648l0.37,9.856l15.734-3.24l2.313,12.032l-32.483,1.389L288.446,1.388z"/>
<path fill="#00AEEF" d="M338.052,0.925l3.656,32.948l6.015-16.753l10.735,2.083l7.358,12.263l0.739-30.079l16.752,2.776
	l-6.617,39.982l-14.114,3.516l-8.933-17.908l-5.32,16.15l-17.861,1.758l-8.699-45.812L338.052,0.925z"/>
<path fill="#FFF200" d="M419.4,13.929c-0.122-0.03-0.47-0.123-1.04-0.277c-0.571-0.155-1.242-0.332-2.013-0.533
	c-0.771-0.2-1.597-0.423-2.476-0.671c-0.88-0.247-1.689-0.47-2.43-0.671c-0.741-0.2-1.604-0.423-2.593-0.67h-5.645l-1.481,6.941
	l18.002,1.942l4.303,15.78l-5.784,10.967l-17.769,2.314l-15.317-4.211l3.192-13.466l16.429,7.22l4.997-2.824l-0.834-6.154
	l-19.157-4.906l0.462-17.908L403.252,0l19.202,2.823L419.4,13.929z"/>
<path fill="#00A651" d="M51.448,82.958c-1.922-0.109-3.58-0.246-4.981-0.41c-1.398-0.165-3.06-0.247-4.979-0.247
	c-0.164,0-0.852,0.123-2.059,0.37c-1.208,0.249-2.551,0.508-4.034,0.783c-1.48,0.273-2.867,0.549-4.157,0.823
	c-1.288,0.274-2.099,0.439-2.427,0.493l-2.801,33.339l15.724,12.183l17.04-10.785l-0.576-6.997l-18.521,1.647l-2.388-20.332
	l36.961,2.14l8.643,26.094l-20.99,23.626l-32.187,1.975L2.881,131.446l-2.882-53.344l30.623-15.229l43.957,2.552L71.45,84.358
	L51.448,82.958z"/>
<path fill="#FFF200" d="M117.137,64.027c1.153,0.055,2.387,0.082,3.705,0.082c1.317,0,2.635,0.014,3.951,0.041
	c1.317,0.029,2.62,0.07,3.909,0.124c1.29,0.055,2.482,0.138,3.581,0.247c1.978,0.275,4.199,0.7,6.669,1.276
	c2.469,0.577,4.719,1.084,6.749,1.523l26.177,73.592l-27.822,2.634l-3.869-17.123l-21.648-3.539l-6.505,23.954l-26.258-8.397
	L117.137,64.027z M136.646,110.7l-6.749-30.045l-7.903,29.304L136.646,110.7z"/>
<path fill="#ED1C24" d="M199.62,66.167l-2.226,61.573l27.084-7.243l1.401,25.519l-50.709-2.471l0.822-79.848L199.62,66.167z"/>
<path fill="#00AEEF" d="M254.031,66.167l-2.224,61.573l27.084-7.243l1.398,25.519l-50.707-2.471l0.821-79.848L254.031,66.167z"/>
<path fill="#ED1C24" d="M285.805,64.52l55.316-0.823l-3.293,19.757l-29.882-3.292l0.66,17.532l17.533-3.457l3.621,17.533
	l-20.742,1.153l0.658,17.533l27.989-5.762l4.114,21.404l-57.786,2.47L285.805,64.52z"/>
<path fill="#FFF200" d="M348.53,64.52c3.347-0.109,6.694-0.273,10.043-0.493c3.347-0.219,6.693-0.33,10.043-0.33
	c1.15,0,2.207,0.055,3.169,0.165c0.957,0.111,1.905,0.247,2.84,0.412c0.933,0.165,1.878,0.344,2.839,0.535
	c0.96,0.193,2.016,0.371,3.17,0.535l23.955,3.209l12.675,19.84l-7.408,18.521l-10.948,2.964l23.627,29.632l-25.602,6.01
	l-23.707-33.01l18.521-16.545l-2.964-12.759l-19.59-2.552l2.139,67.006l-26.258-3.293L348.53,64.52z"/>
<path fill="#00A651" d="M443.111,64.027l16.217,40.665l12.514-40.665l27.821,2.634l-31.608,54.823l1.811,23.462l-29.386,1.069
	l8.23-29.143l-31.856-44.45L443.111,64.027z"/>
</svg>
